<?xml version="1.0" encoding="UTF-8" standalone="no"?>
<!-- Uploaded to: SVG Repo, www.svgrepo.com, Generator: SVG Repo Mixer Tools -->

<svg
   xmlns:dc="http://purl.org/dc/elements/1.1/"
   xmlns:cc="http://creativecommons.org/ns#"
   xmlns:rdf="http://www.w3.org/1999/02/22-rdf-syntax-ns#"
   xmlns:svg="http://www.w3.org/2000/svg"
   xmlns="http://www.w3.org/2000/svg"
   xmlns:sodipodi="http://sodipodi.sourceforge.net/DTD/sodipodi-0.dtd"
   xmlns:inkscape="http://www.inkscape.org/namespaces/inkscape"
   width="800px"
   height="800px"
   viewBox="-52.5 0 361 361"
   version="1.1"
   preserveAspectRatio="xMidYMid"
   id="svg24"
   sodipodi:docname="html-5-svgrepo-com.svg"
   inkscape:version="0.92.3 (2405546, 2018-03-11)">
  <metadata
     id="metadata30">
    <rdf:RDF>
      <cc:Work
         rdf:about="">
        <dc:format>image/svg+xml</dc:format>
        <dc:type
           rdf:resource="http://purl.org/dc/dcmitype/StillImage" />
        <dc:title></dc:title>
      </cc:Work>
    </rdf:RDF>
  </metadata>
  <defs
     id="defs28" />
  <sodipodi:namedview
     pagecolor="#ffffff"
     bordercolor="#666666"
     borderopacity="1"
     objecttolerance="10"
     gridtolerance="10"
     guidetolerance="10"
     inkscape:pageopacity="0"
     inkscape:pageshadow="2"
     inkscape:window-width="1920"
     inkscape:window-height="973"
     id="namedview26"
     showgrid="false"
     inkscape:pagecheckerboard="true"
     inkscape:zoom="0.295"
     inkscape:cx="400"
     inkscape:cy="400"
     inkscape:window-x="-9"
     inkscape:window-y="-9"
     inkscape:window-maximized="1"
     inkscape:current-layer="g22" />
  <g
     id="g22">
    <path
       d="M255.554813,70.7657143 L232.31367,331.125451 L127.843868,360.087912 L23.6617143,331.166242 L0.445186813,70.7657143 L255.554813,70.7657143 L255.554813,70.7657143 Z"
       fill="#E44D26"
       id="path2" />
    <path
       d="M128,337.950242 L212.416703,314.546637 L232.277802,92.0573187 L128,92.0573187 L128,337.950242 L128,337.950242 Z"
       fill="#F16529"
       id="path4" />
    <path
       d="M82.8202198,155.932132 L128,155.932132 L128,123.994725 L47.917011,123.994725 L48.6814945,132.562989 L56.530989,220.572835 L128,220.572835 L128,188.636132 L85.7389011,188.636132 L82.8202198,155.932132 L82.8202198,155.932132 Z"
       fill="#EBEBEB"
       id="path6" />
    <path
       d="M90.0177582,236.54189 L57.957978,236.54189 L62.4323516,286.687648 L127.853011,304.848879 L128,304.808088 L128,271.580132 L127.860044,271.617407 L92.2915165,262.013187 L90.0177582,236.54189 L90.0177582,236.54189 Z"
       fill="#EBEBEB"
       id="path8" />
    <path
       d="M24.1807473,0 L40.4107253,0 L40.4107253,16.0351648 L55.2573187,16.0351648 L55.2573187,0 L71.488,0 L71.488,48.5584176 L55.258022,48.5584176 L55.258022,32.2981978 L40.4114286,32.2981978 L40.4114286,48.5584176 L24.1814505,48.5584176 L24.1814505,0 L24.1807473,0 L24.1807473,0 Z"
       fill="#000000"
       id="path10"
       style="fill:#ffffff" />
    <path
       d="M92.8309451,16.1026813 L78.5427692,16.1026813 L78.5427692,0 L123.356835,0 L123.356835,16.1026813 L109.06233,16.1026813 L109.06233,48.5584176 L92.8316484,48.5584176 L92.8316484,16.1026813 L92.8309451,16.1026813 L92.8309451,16.1026813 Z"
       fill="#000000"
       id="path12"
       style="fill:#ffffff" />
    <path
       d="M130.469275,0 L147.392703,0 L157.802901,17.061978 L168.202549,0 L185.132308,0 L185.132308,48.5584176 L168.969143,48.5584176 L168.969143,24.4901978 L157.802901,41.7554286 L157.523692,41.7554286 L146.349714,24.4901978 L146.349714,48.5584176 L130.469275,48.5584176 L130.469275,0 L130.469275,0 Z"
       fill="#000000"
       id="path14"
       style="fill:#ffffff" />
    <path
       d="M193.20967,0 L209.444571,0 L209.444571,32.5077802 L232.268659,32.5077802 L232.268659,48.5584176 L193.20967,48.5584176 L193.20967,0 L193.20967,0 Z"
       fill="#000000"
       id="path16"
       style="fill:#ffffff" />
    <path
       d="M127.889582,220.572835 L167.216527,220.572835 L163.509451,261.992791 L127.889582,271.606857 L127.889582,304.833407 L193.362286,286.687648 L193.842637,281.291956 L201.347516,197.212132 L202.126769,188.636132 L127.889582,188.636132 L127.889582,220.572835 L127.889582,220.572835 Z"
       fill="#FFFFFF"
       id="path18" />
    <path
       d="M127.889582,155.854066 L127.889582,155.932132 L205.032791,155.932132 L205.673495,148.753582 L207.128615,132.562989 L207.892396,123.994725 L127.889582,123.994725 L127.889582,155.854066 L127.889582,155.854066 Z"
       fill="#FFFFFF"
       id="path20" />
  </g>
</svg>
