<?xml version="1.0" encoding="iso-8859-1"?>
<!-- Generator: Adobe Illustrator 25.4.1, SVG Export Plug-In . SVG Version: 6.00 Build 0)  -->
<svg version="1.1" id="Layer_1" xmlns="http://www.w3.org/2000/svg" xmlns:xlink="http://www.w3.org/1999/xlink" x="0px" y="0px"
	 viewBox="0 0 48 48" style="enable-background:new 0 0 48 48;" xml:space="preserve">
<g>
	
		<linearGradient id="SVGID_00000013904478920314459310000005075952075414005901_" gradientUnits="userSpaceOnUse" x1="24.0413" y1="17.0551" x2="24.4243" y2="44.9168">
		<stop  offset="0" style="stop-color:#C3CED5"/>
		<stop  offset="0.2461" style="stop-color:#BBC7CE"/>
		<stop  offset="0.6226" style="stop-color:#A6B4BD"/>
		<stop  offset="1" style="stop-color:#8A9AA5"/>
	</linearGradient>
	<ellipse style="fill:url(#SVGID_00000013904478920314459310000005075952075414005901_);" cx="24.247" cy="32" rx="11" ry="12"/>
	
		<linearGradient id="SVGID_00000016765397579076148790000009909466265255819950_" gradientUnits="userSpaceOnUse" x1="24.3597" y1="15.7888" x2="24.1044" y2="47.8952">
		<stop  offset="0" style="stop-color:#8D9DA8"/>
		<stop  offset="0.1519" style="stop-color:#94A3AD"/>
		<stop  offset="0.3707" style="stop-color:#A7B3BC"/>
		<stop  offset="0.63" style="stop-color:#C6CED4"/>
		<stop  offset="0.9182" style="stop-color:#F1F3F5"/>
		<stop  offset="1" style="stop-color:#FFFFFF"/>
	</linearGradient>
	<ellipse style="fill:url(#SVGID_00000016765397579076148790000009909466265255819950_);" cx="24.247" cy="30" rx="11" ry="12"/>
	<path style="opacity:0.05;" d="M35.247,31c0-5.904-3.912-10.801-9.06-11.802l-1.735,1.085l-0.037,0.023l-0.042,0.036l-0.123,0.074
		l-1.988-1.21c-5.125,1.021-9.014,5.908-9.014,11.795c0,0.744,0.313,1.635,0.432,2.341l9.673,6.65
		c0.249,0.171,0.541,0.262,0.844,0.262c0.134,0,0.267-0.018,0.397-0.053c0.157-0.006,0.304-0.057,0.427-0.147l9.933-7.284
		C35.02,32.233,35.247,31.557,35.247,31z"/>
	<path style="opacity:0.05;" d="M24.247,20c-6.075,0-10.802,5.34-10.802,11.967c0,0.592,0.392,1.922,0.392,1.922l9.231,6.514
		c0.332,0.229,0.722,0.35,1.127,0.35c0.16,0,0.32-0.019,0.476-0.057c0.235-0.02,0.456-0.102,0.644-0.24l9.448-6.929
		c0.127-0.488,0.368-1.42,0.368-1.83C35.132,25.07,30.322,20,24.247,20z"/>
	
		<linearGradient id="SVGID_00000183965360081319799150000006536964591060257706_" gradientUnits="userSpaceOnUse" x1="4.4723" y1="34.7227" x2="27.0474" y2="16.7134">
		<stop  offset="0" style="stop-color:#DEDEDE"/>
		<stop  offset="1" style="stop-color:#D6D6D6"/>
	</linearGradient>
	<path style="fill:url(#SVGID_00000183965360081319799150000006536964591060257706_);" d="M24.247,21L7.821,11l0.398,17.51
		c0.017,0.309,0.177,0.593,0.432,0.769L23.635,39.58c0.363,0.25,0.847,0.232,1.191-0.043L29.247,36V18L24.247,21z"/>
	<path style="opacity:0.05;" d="M21.215,21.393l-9.165-5.58c-0.26-0.158-0.556-0.241-0.857-0.241c-0.442,0-0.873,0.182-1.183,0.499
		c-0.312,0.319-0.478,0.742-0.468,1.19l0.232,10.2c0.032,0.587,0.313,1.093,0.772,1.409l9.115,6.267
		c0.277,0.191,0.6,0.291,0.933,0.291c0.911,0,1.652-0.741,1.652-1.651V23.23C22.247,22.484,21.851,21.781,21.215,21.393z"/>
	
		<linearGradient id="SVGID_00000058547700288167173130000011414937065301628844_" gradientUnits="userSpaceOnUse" x1="9.2682" y1="3.2378" x2="39.8291" y2="32.0903">
		<stop  offset="0" style="stop-color:#8D9DA8"/>
		<stop  offset="0.3164" style="stop-color:#B5BFC7"/>
		<stop  offset="0.7758" style="stop-color:#EAEDEF"/>
		<stop  offset="1" style="stop-color:#FFFFFF"/>
	</linearGradient>
	<path style="fill:url(#SVGID_00000058547700288167173130000011414937065301628844_);" d="M24.681,3.217l14.391,7.195
		c0.713,0.357,1.147,1.103,1.102,1.9L39.247,29l-13.409,9.833c-0.661,0.484-1.591,0.013-1.591-0.806V21L8.063,11.48
		c-0.346-0.204-0.323-0.712,0.041-0.883l15.704-7.39C24.085,3.076,24.407,3.08,24.681,3.217z"/>
	
		<linearGradient id="SVGID_00000057116845643818457090000006531430983392118942_" gradientUnits="userSpaceOnUse" x1="13.7944" y1="-20.0869" x2="30.5475" y2="21.587">
		<stop  offset="0" style="stop-color:#C3CED5"/>
		<stop  offset="0.2461" style="stop-color:#BBC7CE"/>
		<stop  offset="0.6226" style="stop-color:#A6B4BD"/>
		<stop  offset="1" style="stop-color:#8A9AA5"/>
	</linearGradient>
	<path style="fill:url(#SVGID_00000057116845643818457090000006531430983392118942_);" d="M24.247,39.408V21.554
		c0-0.345,0.178-0.665,0.47-0.848l14.549-9.093c0.412-0.258,0.944,0.056,0.917,0.542l-0.91,16.373
		c-0.017,0.299-0.166,0.574-0.407,0.751L24.724,39.65C24.526,39.795,24.247,39.654,24.247,39.408z"/>
	<path style="opacity:0.05;" d="M37.449,16.687c-0.19-0.2-0.455-0.315-0.73-0.315c-0.186,0-0.369,0.053-0.529,0.153l-8.712,5.445
		c-0.441,0.276-0.705,0.751-0.705,1.272v10.334c0,0.552,0.449,1.001,1.002,1.001c0.212,0,0.416-0.067,0.589-0.194l8.198-6.012
		c0.363-0.266,0.586-0.677,0.611-1.126l0.545-9.816C37.734,17.15,37.638,16.887,37.449,16.687z"/>
	<path style="opacity:0.05;" d="M37.786,16.343c-0.284-0.3-0.682-0.472-1.093-0.472h0c-0.28,0-0.554,0.079-0.794,0.229l-8.712,5.445
		c-0.589,0.368-0.94,1.002-0.94,1.696v10.334c0,0.828,0.674,1.501,1.502,1.501c0.319,0,0.625-0.101,0.885-0.291l8.198-6.012
		c0.484-0.355,0.781-0.902,0.814-1.502l0.545-9.816C38.215,17.04,38.071,16.645,37.786,16.343z"/>
	<path style="opacity:0.05;" d="M34.201,10.489c-1.888-0.973-6.593-3.384-9.494-4.748c-0.198-0.093-0.408-0.14-0.624-0.14
		c-0.219,0-0.432,0.048-0.634,0.143L23.33,5.8l-2.794,1.315c-0.288,0.135-0.464,0.417-0.46,0.736c0.001,0.08,0.014,0.157,0.036,0.23
		c-0.092-0.037-0.185-0.075-0.266-0.108c-0.18-0.073-0.368-0.11-0.56-0.11c-0.223,0-0.439,0.05-0.642,0.147
		c-1.118,0.538-3.439,1.622-4.953,2.328l-0.31,0.145c-0.336,0.157-0.556,0.484-0.575,0.853c-0.019,0.368,0.167,0.715,0.484,0.904
		c2.412,1.439,8.216,4.897,10.016,5.915c0.225,0.127,0.479,0.194,0.735,0.194c0.275,0,0.545-0.077,0.779-0.223
		c0.443-0.275,1.123-0.699,1.724-1.075c0.306-0.192,0.481-0.521,0.469-0.882c-0.008-0.228-0.096-0.433-0.236-0.6
		c0.156,0.075,0.311,0.149,0.46,0.221c0.205,0.098,0.423,0.148,0.648,0.148c0.28,0,0.554-0.079,0.793-0.229
		c1.155-0.726,4.182-2.613,5.591-3.491c0.309-0.193,0.485-0.524,0.47-0.887C34.726,10.971,34.524,10.655,34.201,10.489z"/>
	<path style="opacity:0.05;" d="M34.431,10.044c-1.89-0.974-6.6-3.388-9.51-4.756c-0.265-0.125-0.547-0.188-0.837-0.188
		c-0.293,0-0.578,0.064-0.847,0.191l-0.119,0.056l-2.794,1.315c-0.322,0.151-0.558,0.416-0.672,0.735
		c-0.12-0.022-0.242-0.034-0.365-0.034c-0.299,0-0.588,0.066-0.859,0.197c-1.116,0.537-3.435,1.62-4.947,2.326l-0.31,0.145
		c-0.504,0.235-0.835,0.726-0.863,1.281c-0.028,0.553,0.251,1.074,0.727,1.359c2.414,1.441,8.224,4.902,10.026,5.921
		c0.3,0.17,0.639,0.259,0.981,0.259c0.369,0,0.729-0.103,1.043-0.298c0.443-0.276,1.124-0.699,1.725-1.076
		c0.387-0.243,0.635-0.633,0.692-1.074c0.126,0.025,0.254,0.037,0.384,0.037c0.374,0,0.74-0.106,1.059-0.306
		c1.154-0.726,4.181-2.612,5.589-3.49c0.464-0.289,0.728-0.787,0.706-1.332C35.218,10.768,34.915,10.294,34.431,10.044z"/>
	
		<linearGradient id="SVGID_00000148626959605669592770000015626089274697496240_" gradientUnits="userSpaceOnUse" x1="20.912" y1="-2.6557" x2="31.2339" y2="23.0204">
		<stop  offset="0" style="stop-color:#0D61A9"/>
		<stop  offset="1" style="stop-color:#16528C"/>
	</linearGradient>
	<path style="fill:url(#SVGID_00000148626959605669592770000015626089274697496240_);" d="M27.247,33.576V23.242
		c0-0.345,0.178-0.665,0.47-0.848l8.712-5.445c0.344-0.215,0.787,0.047,0.764,0.452l-0.545,9.816
		c-0.017,0.299-0.166,0.574-0.407,0.751l-8.198,6.012C27.712,34.221,27.247,33.985,27.247,33.576z"/>
	<path style="opacity:0.05;" d="M20.979,21.949l-9.165-5.58c-0.158-0.096-0.337-0.147-0.519-0.147c-0.268,0-0.53,0.111-0.718,0.303
		c-0.188,0.193-0.289,0.449-0.283,0.72l0.232,10.2c0.02,0.365,0.203,0.691,0.491,0.888l9.115,6.267
		c0.168,0.116,0.364,0.177,0.565,0.177c0.552,0,1.002-0.449,1.002-1.001V23.23C21.699,22.71,21.423,22.219,20.979,21.949z"/>
	
		<linearGradient id="SVGID_00000000209201668860932730000011292939128600104331_" gradientUnits="userSpaceOnUse" x1="9.5366" y1="30.6675" x2="20.1634" y2="22.1899">
		<stop  offset="0" style="stop-color:#0D61A9"/>
		<stop  offset="1" style="stop-color:#16528C"/>
	</linearGradient>
	<path style="fill:url(#SVGID_00000000209201668860932730000011292939128600104331_);" d="M20.767,22.352l-9.165-5.58
		c-0.338-0.206-0.769,0.043-0.76,0.438l0.232,10.2c0.011,0.196,0.112,0.376,0.274,0.488l9.115,6.267
		c0.332,0.228,0.783-0.009,0.783-0.412V23.206C21.247,22.857,21.065,22.533,20.767,22.352z"/>
	<g>
		
			<linearGradient id="SVGID_00000081620388210211654860000008532889017283996304_" gradientUnits="userSpaceOnUse" x1="13.306" y1="13.1074" x2="26.5148" y2="13.1074">
			<stop  offset="0" style="stop-color:#0D61A9"/>
			<stop  offset="1" style="stop-color:#16528C"/>
		</linearGradient>
		<path style="fill:url(#SVGID_00000081620388210211654860000008532889017283996304_);" d="M21.012,8.993l-4.336,4.452
			c2.56-1.044,5.006-2.042,7.577-3.091c-0.929,1.083-1.767,2.061-2.605,3.038c0.018,0.026,3.099-1.181,4.782-1.876
			c-0.861,1.078-1.623,2.032-2.428,3.04c0.64,0.357,1.483,0.797,2.251,1.21c0.338,0.182,0.351,0.659,0.026,0.863
			c-0.6,0.376-1.279,0.799-1.722,1.074c-0.307,0.191-0.689,0.196-1.003,0.018c-1.816-1.027-7.824-4.607-10.006-5.91
			c-0.343-0.204-0.315-0.705,0.046-0.874c1.489-0.695,4.07-1.899,5.268-2.476c0.253-0.122,0.538-0.13,0.798-0.025
			C20.095,8.613,20.754,8.881,21.012,8.993z"/>
		
			<linearGradient id="SVGID_00000092420044465588848690000008434618463352433294_" gradientUnits="userSpaceOnUse" x1="20.1587" y1="10.7702" x2="34.2413" y2="10.7702">
			<stop  offset="0" style="stop-color:#0D61A9"/>
			<stop  offset="1" style="stop-color:#16528C"/>
		</linearGradient>
		<path style="fill:url(#SVGID_00000092420044465588848690000008434618463352433294_);" d="M22.464,8.862
			c-0.573-0.266-1.15-0.505-1.709-0.749c-0.235-0.103-0.238-0.436-0.006-0.545c0.91-0.428,2.243-1.056,2.914-1.371
			c0.267-0.126,0.565-0.128,0.832-0.003c2.902,1.364,7.63,3.787,9.477,4.74c0.344,0.177,0.362,0.657,0.033,0.862
			c-1.409,0.878-4.438,2.766-5.593,3.492c-0.291,0.183-0.649,0.202-0.958,0.054c-0.697-0.334-1.904-0.914-2.135-1.035l3.699-4.622
			l-4.517,1.753c-0.018-0.023,2.292-2.95,2.292-2.95c-2.195,0.896-6.619,2.639-6.636,2.616C20.905,10.377,21.651,9.653,22.464,8.862
			z"/>
	</g>
</g>
</svg>