<?xml version="1.0" encoding="UTF-8" standalone="no"?>
<!-- Uploaded to: SVG Repo, www.svgrepo.com, Generator: SVG Repo Mixer Tools -->

<svg
   xmlns:dc="http://purl.org/dc/elements/1.1/"
   xmlns:cc="http://creativecommons.org/ns#"
   xmlns:rdf="http://www.w3.org/1999/02/22-rdf-syntax-ns#"
   xmlns:svg="http://www.w3.org/2000/svg"
   xmlns="http://www.w3.org/2000/svg"
   xmlns:sodipodi="http://sodipodi.sourceforge.net/DTD/sodipodi-0.dtd"
   xmlns:inkscape="http://www.inkscape.org/namespaces/inkscape"
   fill="#000000"
   height="800px"
   width="800px"
   version="1.1"
   id="Layer_1"
   viewBox="0 0 512 512"
   xml:space="preserve"
   sodipodi:docname="processor-cpu-svgrepo-com.svg"
   inkscape:version="0.92.3 (2405546, 2018-03-11)"><metadata
   id="metadata59"><rdf:RDF><cc:Work
       rdf:about=""><dc:format>image/svg+xml</dc:format><dc:type
         rdf:resource="http://purl.org/dc/dcmitype/StillImage" /><dc:title></dc:title></cc:Work></rdf:RDF></metadata><defs
   id="defs57" /><sodipodi:namedview
   pagecolor="#ffffff"
   bordercolor="#666666"
   borderopacity="1"
   objecttolerance="10"
   gridtolerance="10"
   guidetolerance="10"
   inkscape:pageopacity="0"
   inkscape:pageshadow="2"
   inkscape:window-width="1920"
   inkscape:window-height="973"
   id="namedview55"
   showgrid="false"
   inkscape:pagecheckerboard="true"
   inkscape:zoom="0.295"
   inkscape:cx="400"
   inkscape:cy="400"
   inkscape:window-x="-9"
   inkscape:window-y="-9"
   inkscape:window-maximized="1"
   inkscape:current-layer="Layer_1" />
<g
   id="g52"
   style="fill:#ffffff">
	<g
   id="g50"
   style="fill:#ffffff">
		<g
   id="g48"
   style="fill:#ffffff">
			<path
   d="M384,332.8h34.133v-17.067H435.2c4.713,0,8.533-3.82,8.533-8.533s-3.82-8.533-8.533-8.533h-17.067V281.6H435.2     c4.713,0,8.533-3.821,8.533-8.533c0-4.713-3.82-8.533-8.533-8.533h-17.067v-17.067H435.2c4.713,0,8.533-3.82,8.533-8.533     s-3.82-8.533-8.533-8.533h-17.067v-17.067H435.2c4.713,0,8.533-3.821,8.533-8.533s-3.82-8.533-8.533-8.533h-17.067V179.2H384     v-14.015c0-20.534-16.647-37.188-37.18-37.188H332.8v-34.13h-17.067V76.8c0-4.713-3.82-8.533-8.533-8.533     s-8.533,3.82-8.533,8.533v17.067H281.6V76.8c0-4.713-3.821-8.533-8.533-8.533c-4.713,0-8.533,3.82-8.533,8.533v17.067h-17.067     V76.8c0-4.713-3.82-8.533-8.533-8.533s-8.533,3.82-8.533,8.533v17.067h-17.067V76.8c0-4.713-3.821-8.533-8.533-8.533     s-8.533,3.82-8.533,8.533v17.067H179.2v34.13h-14.02c-20.533,0-37.18,16.654-37.18,37.188V179.2H93.867v17.067H76.8     c-4.713,0-8.533,3.82-8.533,8.533s3.82,8.533,8.533,8.533h17.067V230.4H76.8c-4.713,0-8.533,3.82-8.533,8.533     s3.82,8.533,8.533,8.533h17.067v17.067H76.8c-4.713,0-8.533,3.821-8.533,8.533c0,4.713,3.82,8.533,8.533,8.533h17.067v17.067     H76.8c-4.713,0-8.533,3.82-8.533,8.533s3.82,8.533,8.533,8.533h17.067V332.8H128v14.017c0,20.534,16.646,37.18,37.18,37.18h14.02     v34.137h17.067V435.2c0,4.713,3.82,8.533,8.533,8.533s8.533-3.82,8.533-8.533v-17.067H230.4V435.2     c0,4.713,3.82,8.533,8.533,8.533s8.533-3.82,8.533-8.533v-17.067h17.067V435.2c0,4.713,3.821,8.533,8.533,8.533     c4.713,0,8.533-3.82,8.533-8.533v-17.067h17.067V435.2c0,4.713,3.82,8.533,8.533,8.533s8.533-3.82,8.533-8.533v-17.067H332.8     v-34.137h14.02c20.534,0,37.18-16.646,37.18-37.18V332.8z M315.733,401.067H196.267V384h119.467V401.067z M401.067,196.267     v119.467H384V196.267H401.067z M196.267,110.933h119.467v17.063H196.267V110.933z M110.933,315.733V196.267H128v119.467H110.933z      M366.933,346.817c0,11.108-9.005,20.113-20.113,20.113H165.18c-11.108,0-20.113-9.005-20.113-20.113V332.8V179.2v-14.015     c0-11.11,9.008-20.122,20.113-20.122h14.02v0.003h153.6v-0.003h14.02c11.106,0,20.113,9.011,20.113,20.122V179.2v153.6V346.817z"
   id="path2"
   style="fill:#ffffff" />
			<path
   d="M8.533,213.333h34.133c4.713,0,8.533-3.821,8.533-8.533s-3.82-8.533-8.533-8.533H8.533c-4.713,0-8.533,3.82-8.533,8.533     S3.821,213.333,8.533,213.333z"
   id="path4"
   style="fill:#ffffff" />
			<path
   d="M8.533,247.467h34.133c4.713,0,8.533-3.82,8.533-8.533s-3.82-8.533-8.533-8.533H8.533c-4.713,0-8.533,3.82-8.533,8.533     S3.821,247.467,8.533,247.467z"
   id="path6"
   style="fill:#ffffff" />
			<path
   d="M8.533,281.6h34.133c4.713,0,8.533-3.821,8.533-8.533c0-4.713-3.82-8.533-8.533-8.533H8.533     c-4.713,0-8.533,3.821-8.533,8.533C0,277.78,3.821,281.6,8.533,281.6z"
   id="path8"
   style="fill:#ffffff" />
			<path
   d="M8.533,315.733h34.133c4.713,0,8.533-3.82,8.533-8.533s-3.82-8.533-8.533-8.533H8.533c-4.713,0-8.533,3.82-8.533,8.533     S3.821,315.733,8.533,315.733z"
   id="path10"
   style="fill:#ffffff" />
			<path
   d="M503.467,196.267h-34.133c-4.713,0-8.533,3.82-8.533,8.533s3.82,8.533,8.533,8.533h34.133     c4.713,0,8.533-3.821,8.533-8.533S508.18,196.267,503.467,196.267z"
   id="path12"
   style="fill:#ffffff" />
			<path
   d="M503.467,230.4h-34.133c-4.713,0-8.533,3.82-8.533,8.533s3.82,8.533,8.533,8.533h34.133c4.713,0,8.533-3.82,8.533-8.533     S508.18,230.4,503.467,230.4z"
   id="path14"
   style="fill:#ffffff" />
			<path
   d="M503.467,264.533h-34.133c-4.713,0-8.533,3.821-8.533,8.533c0,4.713,3.82,8.533,8.533,8.533h34.133     c4.713,0,8.533-3.821,8.533-8.533C512,268.354,508.18,264.533,503.467,264.533z"
   id="path16"
   style="fill:#ffffff" />
			<path
   d="M503.467,298.667h-34.133c-4.713,0-8.533,3.82-8.533,8.533s3.82,8.533,8.533,8.533h34.133     c4.713,0,8.533-3.82,8.533-8.533S508.18,298.667,503.467,298.667z"
   id="path18"
   style="fill:#ffffff" />
			<path
   d="M204.8,460.8c-4.713,0-8.533,3.82-8.533,8.533v34.133c0,4.713,3.82,8.533,8.533,8.533s8.533-3.821,8.533-8.533v-34.133     C213.333,464.621,209.513,460.8,204.8,460.8z"
   id="path20"
   style="fill:#ffffff" />
			<path
   d="M238.933,460.8c-4.713,0-8.533,3.82-8.533,8.533v34.133c0,4.713,3.82,8.533,8.533,8.533s8.533-3.821,8.533-8.533v-34.133     C247.467,464.621,243.646,460.8,238.933,460.8z"
   id="path22"
   style="fill:#ffffff" />
			<path
   d="M273.067,460.8c-4.713,0-8.533,3.82-8.533,8.533v34.133c0,4.713,3.821,8.533,8.533,8.533     c4.713,0,8.533-3.821,8.533-8.533v-34.133C281.6,464.621,277.78,460.8,273.067,460.8z"
   id="path24"
   style="fill:#ffffff" />
			<path
   d="M307.2,460.8c-4.713,0-8.533,3.82-8.533,8.533v34.133c0,4.713,3.82,8.533,8.533,8.533s8.533-3.821,8.533-8.533v-34.133     C315.733,464.621,311.913,460.8,307.2,460.8z"
   id="path26"
   style="fill:#ffffff" />
			<path
   d="M204.8,51.2c4.713,0,8.533-3.82,8.533-8.533V8.533c0-4.713-3.821-8.533-8.533-8.533s-8.533,3.82-8.533,8.533v34.133     C196.267,47.38,200.087,51.2,204.8,51.2z"
   id="path28"
   style="fill:#ffffff" />
			<path
   d="M238.933,51.2c4.713,0,8.533-3.82,8.533-8.533V8.533c0-4.713-3.82-8.533-8.533-8.533s-8.533,3.82-8.533,8.533v34.133     C230.4,47.38,234.221,51.2,238.933,51.2z"
   id="path30"
   style="fill:#ffffff" />
			<path
   d="M273.067,51.2c4.713,0,8.533-3.82,8.533-8.533V8.533C281.6,3.821,277.78,0,273.067,0c-4.713,0-8.533,3.82-8.533,8.533     v34.133C264.533,47.38,268.354,51.2,273.067,51.2z"
   id="path32"
   style="fill:#ffffff" />
			<path
   d="M307.2,51.2c4.713,0,8.533-3.82,8.533-8.533V8.533c0-4.713-3.82-8.533-8.533-8.533s-8.533,3.82-8.533,8.533v34.133     C298.667,47.38,302.487,51.2,307.2,51.2z"
   id="path34"
   style="fill:#ffffff" />
			<path
   d="M122.194,125.72c3.454,3.207,8.853,3.007,12.06-0.447c3.207-3.454,3.007-8.853-0.447-12.06L14.34,2.28     C10.886-0.927,5.487-0.727,2.28,2.727c-3.207,3.454-3.007,8.853,0.447,12.06L122.194,125.72z"
   id="path36"
   style="fill:#ffffff" />
			<path
   d="M389.807,125.72L509.273,14.787c3.454-3.207,3.654-8.606,0.447-12.06c-3.207-3.453-8.606-3.654-12.06-0.447     L378.194,113.214c-3.453,3.207-3.654,8.606-0.447,12.06C380.954,128.727,386.353,128.927,389.807,125.72z"
   id="path38"
   style="fill:#ffffff" />
			<path
   d="M389.807,386.28c-3.453-3.207-8.853-3.007-12.06,0.447c-3.207,3.453-3.007,8.853,0.447,12.06L497.66,509.72     c3.454,3.207,8.853,3.007,12.06-0.447c3.207-3.453,3.007-8.853-0.447-12.06L389.807,386.28z"
   id="path40"
   style="fill:#ffffff" />
			<path
   d="M122.194,386.28L2.727,497.214c-3.453,3.207-3.654,8.606-0.447,12.06c3.207,3.454,8.606,3.654,12.06,0.447     l119.467-110.933c3.454-3.207,3.654-8.606,0.447-12.06C131.046,383.273,125.647,383.073,122.194,386.28z"
   id="path42"
   style="fill:#ffffff" />
			<path
   d="M342.943,239.415l-10.266-1.971c-9.086-1.75-13.251-12.363-7.776-19.827l6.444-8.791c2.49-3.397,2.129-8.103-0.85-11.081     l-13.926-13.918c-2.893-2.892-7.432-3.323-10.818-1.029l-8.653,5.862c-7.66,5.188-18.112,0.627-19.522-8.52l-1.655-10.766     c-0.64-4.163-4.222-7.237-8.434-7.237h-19.695c-4.093,0-7.61,2.906-8.381,6.926l-2.543,13.261     c-1.708,8.875-11.95,13.114-19.44,8.042l-11.18-7.57c-3.386-2.293-7.924-1.861-10.816,1.03l-13.926,13.918     c-2.979,2.977-3.34,7.683-0.85,11.081l6.443,8.789c5.477,7.467,1.312,18.079-7.779,19.83l-10.261,1.97     c-4.019,0.772-6.924,4.288-6.924,8.38v19.695c0,4.213,3.074,7.795,7.238,8.434l10.778,1.655     c9.138,1.404,13.696,11.856,8.508,19.512l-5.865,8.666c-2.293,3.388-1.859,7.927,1.035,10.819l13.926,13.918     c2.978,2.976,7.681,3.336,11.077,0.847l8.789-6.443c7.458-5.469,18.077-1.302,19.821,7.775l1.971,10.272     c0.771,4.02,4.288,6.925,8.38,6.925h19.695c4.21,0,7.792-3.071,8.434-7.232l1.169-7.578c1.435-9.355,12.275-13.845,19.903-8.252     l6.177,4.53c3.396,2.49,8.1,2.132,11.079-0.845l13.926-13.918c2.894-2.892,3.328-7.431,1.035-10.819l-5.862-8.661     c-5.191-7.66-0.633-18.113,8.505-19.516l10.778-1.656c4.164-0.64,7.238-4.222,7.238-8.434v-19.695     C349.867,243.703,346.961,240.187,342.943,239.415z M332.8,260.168l-3.54,0.544c-21.529,3.307-32.265,27.925-20.045,45.956     l1.909,2.82l-3.764,3.762c-18.237-13.37-43.762-2.798-47.14,19.217l-5.378,0.338l-0.643-3.349     c-4.11-21.389-29.11-31.2-46.672-18.321l-2.887,2.116l-3.766-3.763l1.912-2.825c12.217-18.027,1.482-42.645-20.048-45.951     l-3.54-0.544v-5.322l3.341-0.642c21.398-4.122,31.206-29.112,18.319-46.682l-2.113-2.882l3.765-3.762l5.345,3.619     c17.634,11.943,41.745,1.963,45.77-18.953l1.216-6.34h5.321l0.543,3.532c3.319,21.531,27.925,32.27,45.962,20.054l2.82-1.911     l3.763,3.761l-2.114,2.884c-12.885,17.567-3.078,42.558,18.316,46.679l3.346,0.643V260.168z"
   id="path44"
   style="fill:#ffffff" />
			<path
   d="M256,221.867c-18.853,0-34.133,15.281-34.133,34.133c0,18.853,15.281,34.133,34.133,34.133     c18.853,0,34.133-15.281,34.133-34.133C290.133,237.147,274.853,221.867,256,221.867z M256,273.067     c-9.427,0-17.067-7.64-17.067-17.067c0-9.427,7.64-17.067,17.067-17.067c9.427,0,17.067,7.64,17.067,17.067     C273.067,265.427,265.427,273.067,256,273.067z"
   id="path46"
   style="fill:#ffffff" />
		</g>
	</g>
</g>
</svg>